<mxfile host="Electron" modified="2023-07-25T20:05:47.195Z" agent="Mozilla/5.0 (Windows NT 10.0; Win64; x64) AppleWebKit/537.36 (KHTML, like Gecko) draw.io/21.6.5 Chrome/114.0.5735.243 Electron/25.3.1 Safari/537.36" etag="fq0Is9BOBAFm9V9k-Fis" version="21.6.5" type="device">
  <diagram name="Página-1" id="nFLYcnp-unWdXeMjdf5J">
    <mxGraphModel dx="1436" dy="614" grid="1" gridSize="10" guides="1" tooltips="1" connect="1" arrows="1" fold="1" page="0" pageScale="1" pageWidth="827" pageHeight="1169" math="0" shadow="0">
      <root>
        <mxCell id="0" />
        <mxCell id="1" parent="0" />
        <mxCell id="h08hhYI5iA260howCEkM-1" value="E-Commerce - SenaiShop&#xa;&#xa;&#xa;Uma Loja possui várias categorias&#xa;Uma categoria possui subcategorias&#xa;Um produto possui uma subcategoria&#xa;Um cliente efetua um pedido&#xa;Um pedido pode ter 1 ou vários produtos" style="text;whiteSpace=wrap;fontSize=14;" vertex="1" parent="1">
          <mxGeometry x="-80" y="20" width="300" height="140" as="geometry" />
        </mxCell>
        <mxCell id="h08hhYI5iA260howCEkM-2" value="&lt;font style=&quot;font-size: 14px;&quot;&gt;Empresa&lt;/font&gt;" style="rounded=0;whiteSpace=wrap;html=1;" vertex="1" parent="1">
          <mxGeometry x="-60" y="250" width="120" height="60" as="geometry" />
        </mxCell>
        <mxCell id="h08hhYI5iA260howCEkM-3" value="&lt;font style=&quot;font-size: 14px;&quot;&gt;Cliente&lt;/font&gt;" style="rounded=0;whiteSpace=wrap;html=1;" vertex="1" parent="1">
          <mxGeometry x="-60" y="360" width="120" height="60" as="geometry" />
        </mxCell>
        <mxCell id="h08hhYI5iA260howCEkM-4" value="&lt;font style=&quot;font-size: 14px;&quot;&gt;Categoria&lt;/font&gt;" style="rounded=0;whiteSpace=wrap;html=1;" vertex="1" parent="1">
          <mxGeometry x="-60" y="470" width="120" height="60" as="geometry" />
        </mxCell>
        <mxCell id="h08hhYI5iA260howCEkM-5" value="&lt;font style=&quot;font-size: 14px;&quot;&gt;Subcategoria&lt;/font&gt;" style="rounded=0;whiteSpace=wrap;html=1;" vertex="1" parent="1">
          <mxGeometry x="-60" y="580" width="120" height="60" as="geometry" />
        </mxCell>
        <mxCell id="h08hhYI5iA260howCEkM-6" value="&lt;font style=&quot;font-size: 14px;&quot;&gt;Pedido&lt;/font&gt;" style="rounded=0;whiteSpace=wrap;html=1;" vertex="1" parent="1">
          <mxGeometry x="-60" y="690" width="120" height="60" as="geometry" />
        </mxCell>
        <mxCell id="h08hhYI5iA260howCEkM-7" value="&lt;font style=&quot;font-size: 14px;&quot;&gt;Prduto&lt;/font&gt;" style="rounded=0;whiteSpace=wrap;html=1;" vertex="1" parent="1">
          <mxGeometry x="-60" y="790" width="120" height="60" as="geometry" />
        </mxCell>
      </root>
    </mxGraphModel>
  </diagram>
</mxfile>
